<?xml version="1.0" encoding="utf-8"?>
<!-- Generator: Adobe Illustrator 16.0.0, SVG Export Plug-In . SVG Version: 6.00 Build 0)  -->
<svg version="1.2" baseProfile="tiny" id="Layer_1" xmlns="http://www.w3.org/2000/svg" xmlns:xlink="http://www.w3.org/1999/xlink"
	 x="0px" y="0px" width="683.333px" height="98.667px" viewBox="0 0 683.333 98.667" xml:space="preserve">
<g>
	<linearGradient id="SVGID_1_" gradientUnits="userSpaceOnUse" x1="26.7007" y1="74.5376" x2="26.7007" y2="9.769">
		<stop  offset="0" style="stop-color:#42047E"/>
		<stop  offset="0" style="stop-color:#6304AE"/>
		<stop  offset="0.0888" style="stop-color:#600DAD"/>
		<stop  offset="0.2336" style="stop-color:#5625AC"/>
		<stop  offset="0.4165" style="stop-color:#474DA9"/>
		<stop  offset="0.6305" style="stop-color:#3284A5"/>
		<stop  offset="0.8675" style="stop-color:#17CAA1"/>
		<stop  offset="1" style="stop-color:#07F49E"/>
		<stop  offset="1" style="stop-color:#07F49E"/>
	</linearGradient>
	<path fill-rule="evenodd" fill="url(#SVGID_1_)" d="M5.208,9.792c0.641,0,1.265,0,1.891,0c11.148,0,22.296,0.016,33.444-0.023
		c1.166-0.003,1.816,0.422,2.593,1.302c3.475,3.935,4.888,8.38,4.292,13.625c-0.176,1.545-0.487,2.731-1.585,3.828
		c-2.226,2.223-4.356,4.542-6.62,6.92c2.685,3.959,5.373,7.832,7.939,11.784c0.561,0.866,0.951,2.011,0.965,3.033
		c0.087,6.185,0.02,12.373,0.066,18.56c0.008,1.061-0.414,1.59-1.233,2.234c-3.569,2.813-7.521,3.604-12.038,3.469
		c-9.213-0.277-18.441-0.086-27.663-0.086c-0.639,0-1.278,0-2.052,0C5.208,52.908,5.208,31.468,5.208,9.792z M16.614,46.005
		c0,6.373,0,12.477,0,18.648c6.754,0,13.412,0,20.227,0c0-4.162-0.057-8.178,0.02-12.189c0.053-2.783-2.194-4.226-3.413-6.267
		c-0.085-0.141-0.422-0.184-0.642-0.184C27.451,46.004,22.097,46.005,16.614,46.005z M35.757,20.567c-6.391,0-12.725,0-19.122,0
		c0,4.892,0,9.693,0,14.625c2.497,0,4.882,0.057,7.26-0.044c0.534-0.023,1.133-0.513,1.551-0.937
		c2.994-3.029,5.889-6.161,8.942-9.126C35.703,23.81,36.218,22.474,35.757,20.567z"/>
	<linearGradient id="SVGID_2_" gradientUnits="userSpaceOnUse" x1="498.9048" y1="94.2964" x2="498.9048" y2="24.5791">
		<stop  offset="0" style="stop-color:#42047E"/>
		<stop  offset="0" style="stop-color:#6304AE"/>
		<stop  offset="0.0888" style="stop-color:#600DAD"/>
		<stop  offset="0.2336" style="stop-color:#5625AC"/>
		<stop  offset="0.4165" style="stop-color:#474DA9"/>
		<stop  offset="0.6305" style="stop-color:#3284A5"/>
		<stop  offset="0.8675" style="stop-color:#17CAA1"/>
		<stop  offset="1" style="stop-color:#07F49E"/>
		<stop  offset="1" style="stop-color:#07F49E"/>
	</linearGradient>
	<path fill-rule="evenodd" fill="url(#SVGID_2_)" d="M488.589,73.029c0,7.285,0,14.219,0,21.268c-3.742,0-7.39,0-11.172,0
		c0-23.117,0-46.252,0-69.529c3.646,0,7.34,0,11.108,0c0.058,0.679,0.113,1.346,0.174,2.059c0.267-0.044,0.484-0.013,0.588-0.107
		c2.522-2.307,5.602-2.176,8.715-2.116c4.317,0.083,8.638,0.063,12.954-0.009c1.144-0.018,1.771,0.361,2.373,1.316
		c1.985,3.158,4.132,6.216,6.107,9.381c0.52,0.834,0.897,1.916,0.904,2.888c0.068,9.104,0.065,18.209-0.003,27.313
		c-0.006,0.813-0.442,1.781-0.992,2.402c-1.931,2.18-4.031,4.213-6,6.361c-0.806,0.881-1.643,1.279-2.871,1.262
		c-4.844-0.072-9.689-0.1-14.53,0.004c-2.059,0.045-3.915-0.229-5.568-1.52C489.937,73.66,489.388,73.457,488.589,73.029z
		 M508.876,51.071c0-3.737,0.016-7.473-0.007-11.209c-0.009-1.792-2.018-4.473-3.373-4.479c-4.845-0.026-9.691-0.034-14.537,0.004
		c-1.435,0.012-2.317,0.875-2.325,2.293c-0.041,7.589-0.053,15.18,0.002,22.768c0.016,2.199,2.444,4.355,4.65,4.355
		c4.203,0.002,8.407,0.006,12.61,0c2.274-0.006,2.979-0.732,2.979-3.047C508.879,58.193,508.878,54.632,508.876,51.071z"/>
	<linearGradient id="SVGID_3_" gradientUnits="userSpaceOnUse" x1="183.4121" y1="74.4692" x2="183.4121" y2="5.583">
		<stop  offset="0" style="stop-color:#42047E"/>
		<stop  offset="0" style="stop-color:#6304AE"/>
		<stop  offset="0.0888" style="stop-color:#600DAD"/>
		<stop  offset="0.2336" style="stop-color:#5625AC"/>
		<stop  offset="0.4165" style="stop-color:#474DA9"/>
		<stop  offset="0.6305" style="stop-color:#3284A5"/>
		<stop  offset="0.8675" style="stop-color:#17CAA1"/>
		<stop  offset="1" style="stop-color:#07F49E"/>
		<stop  offset="1" style="stop-color:#07F49E"/>
	</linearGradient>
	<path fill-rule="evenodd" fill="url(#SVGID_3_)" d="M193.383,73.783c-1.788,0.219-3.572,0.6-5.361,0.625
		c-5.602,0.082-11.207-0.008-16.809,0.061c-1.257,0.016-2.045-0.334-2.662-1.445c-0.648-1.168-1.386-2.324-2.278-3.311
		c-3.661-4.045-4.7-8.705-4.382-14.117c0.406-6.921,0.062-13.886,0.144-20.831c0.01-0.868,0.446-1.905,1.025-2.563
		c2.039-2.319,4.188-4.548,6.385-6.719c0.512-0.506,1.371-0.923,2.076-0.931c5.603-0.076,11.207-0.064,16.809-0.016
		c0.715,0.007,1.471,0.287,2.13,0.6c0.987,0.472,1.904,1.086,3.166,1.824c0-7.27,0-14.269,0-21.376c3.907,0,7.554,0,11.361,0
		c0,22.875,0,45.765,0,68.854c-3.469,0-6.953,0.035-10.434-0.047c-0.433-0.01-0.852-0.633-1.277-0.975
		C193.311,73.539,193.347,73.662,193.383,73.783z M193.7,51.108c0-3.733,0.015-7.464-0.006-11.195
		c-0.011-1.919-1.991-4.646-3.38-4.652c-4.781-0.02-9.562-0.011-14.343-0.004c-1.554,0.001-2.434,0.924-2.445,2.35
		c-0.062,7.638-0.066,15.278-0.005,22.915c0.017,2.146,2.262,4.164,4.34,4.164c4.373,0.002,8.747,0.008,13.119-0.002
		c1.99-0.004,2.708-0.721,2.716-2.73C193.71,58.337,193.7,54.722,193.7,51.108z"/>
	<linearGradient id="SVGID_4_" gradientUnits="userSpaceOnUse" x1="130.8188" y1="74.5444" x2="130.8188" y2="22.6152">
		<stop  offset="0" style="stop-color:#42047E"/>
		<stop  offset="0" style="stop-color:#6304AE"/>
		<stop  offset="0.0888" style="stop-color:#600DAD"/>
		<stop  offset="0.2336" style="stop-color:#5625AC"/>
		<stop  offset="0.4165" style="stop-color:#474DA9"/>
		<stop  offset="0.6305" style="stop-color:#3284A5"/>
		<stop  offset="0.8675" style="stop-color:#17CAA1"/>
		<stop  offset="1" style="stop-color:#07F49E"/>
		<stop  offset="1" style="stop-color:#07F49E"/>
	</linearGradient>
	<path fill-rule="evenodd" fill="url(#SVGID_4_)" d="M153.23,74.437c-3.693,0-7.135,0.043-10.572-0.041
		c-0.532-0.014-1.051-0.602-1.891-1.119c-1.982,1.877-4.926,1.104-7.711,1.141c-5.196,0.072-10.393-0.006-15.59,0.043
		c-0.993,0.01-1.575-0.301-2.117-1.137c-1.967-3.037-4.027-6.01-6.041-9.016c-1.501-2.24-1.271-5.939,0.542-7.834
		c4.155-4.346,8.315-8.685,12.551-12.95c0.569-0.573,1.586-0.971,2.404-0.985c4.845-0.091,9.692-0.046,14.539-0.046
		c0.629,0,1.257,0,2.016,0c0-3.055,0-5.928,0-8.954c-8.508,0-16.897,0-25.425,0c0-3.666,0-7.18,0-10.813
		c0.629-0.031,1.197-0.084,1.765-0.084c9.108-0.006,18.218,0.016,27.327-0.028c1.172-0.006,1.968,0.27,2.57,1.329
		c0.689,1.213,1.428,2.438,2.351,3.473c2.812,3.157,3.45,6.775,3.363,10.936c-0.237,11.323-0.081,22.655-0.081,33.983
		C153.23,72.966,153.23,73.597,153.23,74.437z M120.711,61.197c0.818,2.59,2.397,3.453,5.022,3.32
		c4.599-0.232,9.217-0.061,13.827-0.07c0.611,0,1.223-0.066,1.815-0.1c0-3.713,0-7.191,0-10.859c-4.357,0-8.602-0.008-12.847,0.016
		c-0.254,0.002-0.566,0.178-0.752,0.369C125.383,56.332,123.007,58.812,120.711,61.197z"/>
	<linearGradient id="SVGID_5_" gradientUnits="userSpaceOnUse" x1="341.251" y1="74.3257" x2="341.251" y2="5.5688">
		<stop  offset="0" style="stop-color:#42047E"/>
		<stop  offset="0" style="stop-color:#6304AE"/>
		<stop  offset="0.0888" style="stop-color:#600DAD"/>
		<stop  offset="0.2336" style="stop-color:#5625AC"/>
		<stop  offset="0.4165" style="stop-color:#474DA9"/>
		<stop  offset="0.6305" style="stop-color:#3284A5"/>
		<stop  offset="0.8675" style="stop-color:#17CAA1"/>
		<stop  offset="1" style="stop-color:#07F49E"/>
		<stop  offset="1" style="stop-color:#07F49E"/>
	</linearGradient>
	<path fill-rule="evenodd" fill="url(#SVGID_5_)" d="M351.259,74.31c0-0.691,0-1.318,0-1.945c0-10.738,0.003-21.479-0.002-32.219
		c-0.001-3.011-1.882-4.892-4.866-4.892c-4.145,0-8.288-0.007-12.432,0.001c-2.129,0.005-3.02,0.919-3.021,3.086
		c-0.003,11.265-0.001,22.531-0.001,33.794c0,0.693,0,1.387,0,2.189c-3.768,0-7.415,0-11.197,0c0-22.879,0-45.77,0-68.757
		c3.711,0,7.354,0,11.137,0c0,7.08,0,14.065,0,21.261c0.541-0.187,0.959-0.223,1.229-0.442c1.979-1.61,4.246-1.868,6.717-1.801
		c4.724,0.128,9.455,0.068,14.182,0.014c1.04-0.011,1.7,0.27,2.3,1.153c2.195,3.232,4.501,6.389,6.705,9.617
		c0.399,0.584,0.721,1.365,0.724,2.056c0.041,12.082,0.027,24.165,0.022,36.247c0,0.17-0.041,0.342-0.079,0.637
		C358.933,74.31,355.187,74.31,351.259,74.31z"/>
	<linearGradient id="SVGID_6_" gradientUnits="userSpaceOnUse" x1="446.3374" y1="74.3452" x2="446.3374" y2="24.4639">
		<stop  offset="0" style="stop-color:#42047E"/>
		<stop  offset="0" style="stop-color:#6304AE"/>
		<stop  offset="0.0888" style="stop-color:#600DAD"/>
		<stop  offset="0.2336" style="stop-color:#5625AC"/>
		<stop  offset="0.4165" style="stop-color:#474DA9"/>
		<stop  offset="0.6305" style="stop-color:#3284A5"/>
		<stop  offset="0.8675" style="stop-color:#17CAA1"/>
		<stop  offset="1" style="stop-color:#07F49E"/>
		<stop  offset="1" style="stop-color:#07F49E"/>
	</linearGradient>
	<path fill-rule="evenodd" fill="url(#SVGID_6_)" d="M423.052,74.345c0-16.611,0-33.058,0-49.612c3.725,0,7.372,0,11.165,0
		c0.056,0.662,0.111,1.316,0.192,2.28c0.978-0.578,1.726-1.114,2.549-1.479c0.878-0.388,1.808-0.7,2.747-0.894
		c3.209-0.665,5.458,0.542,6.753,3.571c0.222,0.519,0.647,0.951,1.096,1.593c2.38-1.418,4.8-2.692,7.03-4.239
		c2.115-1.466,4.387-0.803,6.604-0.867c0.355-0.01,0.805,0.602,1.086,1.011c2.279,3.316,4.543,6.646,6.772,9.996
		c0.304,0.457,0.56,1.051,0.561,1.583c0.025,12.2,0.013,24.4,0.002,36.6c0,0.109-0.058,0.217-0.121,0.438c-3.676,0-7.384,0-11.36,0
		c0-0.654,0-1.33,0-2.004c0-10.742-0.029-21.483,0.028-32.223c0.011-1.983-1.257-3.218-2.305-4.538
		c-0.325-0.409-1.729-0.463-2.233-0.107c-0.701,0.493-1.406,1.513-1.438,2.333c-0.149,3.788-0.066,7.586-0.066,11.38
		c0,0.63,0,1.259,0,1.985c-3.868,0-7.57,0-11.505,0c0-3.555-0.144-7.045,0.054-10.517c0.121-2.139-1.058-3.542-2.209-4.935
		c-0.393-0.476-1.726-0.604-2.381-0.319c-0.734,0.318-1.265,1.236-1.727,1.99c-0.209,0.339-0.043,0.913-0.043,1.379
		c-0.001,11.15-0.001,22.3-0.001,33.449c0,0.688,0,1.371,0,2.146C430.486,74.345,426.837,74.345,423.052,74.345z"/>
	<linearGradient id="SVGID_7_" gradientUnits="userSpaceOnUse" x1="393.8052" y1="74.4438" x2="393.8052" y2="24.6196">
		<stop  offset="0" style="stop-color:#42047E"/>
		<stop  offset="0" style="stop-color:#6304AE"/>
		<stop  offset="0.0888" style="stop-color:#600DAD"/>
		<stop  offset="0.2336" style="stop-color:#5625AC"/>
		<stop  offset="0.4165" style="stop-color:#474DA9"/>
		<stop  offset="0.6305" style="stop-color:#3284A5"/>
		<stop  offset="0.8675" style="stop-color:#17CAA1"/>
		<stop  offset="1" style="stop-color:#07F49E"/>
		<stop  offset="1" style="stop-color:#07F49E"/>
	</linearGradient>
	<path fill-rule="evenodd" fill="url(#SVGID_7_)" d="M415.381,51.851c0,4.613,0.037,9.229-0.039,13.84
		c-0.012,0.719-0.374,1.576-0.857,2.117c-1.745,1.959-3.57,3.854-5.46,5.674c-0.518,0.496-1.365,0.912-2.064,0.916
		c-8.701,0.061-17.401,0.063-26.103-0.006c-0.654-0.006-1.528-0.504-1.919-1.047c-2.073-2.893-4.058-5.848-5.992-8.834
		c-0.413-0.639-0.688-1.492-0.692-2.248c-0.046-9.285-0.049-18.569,0.008-27.854c0.004-0.716,0.373-1.581,0.859-2.116
		c2.16-2.371,4.396-4.676,6.68-6.931c0.429-0.423,1.199-0.704,1.813-0.708c8.175-0.045,16.35-0.054,24.524,0.014
		c0.659,0.006,1.551,0.478,1.931,1.018c2.281,3.245,4.476,6.553,6.62,9.891c0.41,0.637,0.652,1.499,0.661,2.26
		C415.411,42.508,415.381,47.18,415.381,51.851z M403.818,51.021c0-3.735,0.02-7.469-0.007-11.203
		c-0.018-2.484-2.103-4.564-4.505-4.564c-4.377-0.001-8.753-0.01-13.129,0.004c-1.563,0.005-2.667,1.028-2.671,2.538
		c-0.021,7.526-0.037,15.055,0.008,22.581c0.013,2.203,2.418,4.426,4.586,4.426c4.318,0.002,8.636,0.01,12.954-0.004
		c1.922-0.008,2.752-0.836,2.76-2.748C403.829,58.373,403.819,54.697,403.818,51.021z"/>
	<linearGradient id="SVGID_8_" gradientUnits="userSpaceOnUse" x1="604.0337" y1="74.4419" x2="604.0337" y2="24.6221">
		<stop  offset="0" style="stop-color:#42047E"/>
		<stop  offset="0" style="stop-color:#6304AE"/>
		<stop  offset="0.0888" style="stop-color:#600DAD"/>
		<stop  offset="0.2336" style="stop-color:#5625AC"/>
		<stop  offset="0.4165" style="stop-color:#474DA9"/>
		<stop  offset="0.6305" style="stop-color:#3284A5"/>
		<stop  offset="0.8675" style="stop-color:#17CAA1"/>
		<stop  offset="1" style="stop-color:#07F49E"/>
		<stop  offset="1" style="stop-color:#07F49E"/>
	</linearGradient>
	<path fill-rule="evenodd" fill="url(#SVGID_8_)" d="M582.459,48.381c0-4.614-0.041-9.226,0.04-13.837
		c0.013-0.777,0.362-1.715,0.88-2.286c2.152-2.378,4.405-4.668,6.684-6.928c0.395-0.392,1.091-0.674,1.649-0.677
		c8.291-0.042,16.582-0.047,24.872,0.012c0.561,0.004,1.314,0.447,1.642,0.921c2.325,3.356,4.586,6.759,6.807,10.187
		c0.352,0.544,0.557,1.29,0.559,1.943c0.035,9.341,0.041,18.684-0.009,28.025c-0.003,0.67-0.325,1.482-0.772,1.98
		c-1.837,2.033-3.748,4.004-5.707,5.922c-0.437,0.426-1.18,0.758-1.784,0.762c-8.757,0.047-17.515,0.053-26.273-0.01
		c-0.616-0.002-1.45-0.439-1.808-0.941c-2.129-2.992-4.179-6.045-6.178-9.129c-0.38-0.586-0.567-1.398-0.575-2.107
		C582.435,57.605,582.459,52.994,582.459,48.381z M614.052,51c0-3.736,0.017-7.47-0.005-11.205
		c-0.012-1.945-2.001-4.531-3.479-4.535c-4.786-0.016-9.571-0.023-14.357,0.004c-1.517,0.01-2.437,0.945-2.447,2.373
		c-0.064,7.586-0.061,15.174-0.013,22.762c0.013,2.191,2.432,4.404,4.601,4.404c4.318,0.002,8.637,0.01,12.956-0.004
		c1.903-0.008,2.734-0.852,2.742-2.77C614.063,58.355,614.052,54.677,614.052,51z"/>
	<linearGradient id="SVGID_9_" gradientUnits="userSpaceOnUse" x1="551.0024" y1="74.4604" x2="551.0024" y2="24.502">
		<stop  offset="0" style="stop-color:#42047E"/>
		<stop  offset="0" style="stop-color:#6304AE"/>
		<stop  offset="0.0888" style="stop-color:#600DAD"/>
		<stop  offset="0.2336" style="stop-color:#5625AC"/>
		<stop  offset="0.4165" style="stop-color:#474DA9"/>
		<stop  offset="0.6305" style="stop-color:#3284A5"/>
		<stop  offset="0.8675" style="stop-color:#17CAA1"/>
		<stop  offset="1" style="stop-color:#07F49E"/>
		<stop  offset="1" style="stop-color:#07F49E"/>
	</linearGradient>
	<path fill-rule="evenodd" fill="url(#SVGID_9_)" d="M563.676,41.584c-1.207-1.786-2.391-3.439-3.463-5.158
		c-0.584-0.938-1.246-1.339-2.397-1.32c-4.376,0.074-8.755,0.021-13.133,0.034c-2.006,0.006-2.571,0.59-2.575,2.611
		c-0.004,1.902-0.221,3.785,1.274,5.426c0.773,0.85,1.406,1.34,2.593,1.329c5.837-0.056,11.675,0.01,17.511-0.054
		c1.203-0.013,1.901,0.387,2.533,1.387c1.683,2.661,3.517,5.227,5.197,7.89c0.438,0.691,0.735,1.592,0.756,2.404
		c0.082,3.383,0.09,6.771-0.008,10.152c-0.021,0.781-0.399,1.68-0.896,2.295c-1.393,1.721-2.88,3.375-4.448,4.936
		c-0.502,0.5-1.373,0.881-2.077,0.885c-9.573,0.059-19.146,0.023-28.718,0.061c-0.998,0.004-1.587-0.291-2.099-1.156
		c-1.126-1.902-2.372-3.734-3.757-5.885c2.628-2.305,5.248-4.604,7.87-6.904c-0.103-0.162-0.205-0.324-0.307-0.484
		c0.36,0.516,0.831,0.988,1.063,1.559c1.138,2.793,3.177,3.457,6.084,3.285c4.537-0.27,9.101-0.068,13.654-0.072
		c2.142-0.004,2.33-0.189,2.341-2.26c0.008-1.4,0.031-2.801-0.007-4.201c-0.052-1.908-1.285-3.113-3.143-3.113
		c-5.894-0.006-11.791-0.035-17.685,0.027c-1.137,0.01-1.804-0.338-2.399-1.295c-1.605-2.572-3.219-5.15-5.016-7.587
		c-1.392-1.883-2.033-3.832-1.791-6.162c0.143-1.386,0.177-2.818-0.008-4.196c-0.348-2.612,0.439-4.646,2.575-6.185
		c0.422-0.303,0.854-0.651,1.146-1.075c2.558-3.738,6.139-4.444,10.452-4.215c6.169,0.328,12.369,0.113,18.556,0.057
		c1.121-0.01,1.82,0.305,2.428,1.261c1.471,2.313,3.089,4.531,4.543,6.852c0.273,0.438,0.332,1.409,0.043,1.735
		C568.242,36.841,566,39.133,563.676,41.584z"/>
	<linearGradient id="SVGID_10_" gradientUnits="userSpaceOnUse" x1="656.5933" y1="74.3843" x2="656.5933" y2="24.5791">
		<stop  offset="0" style="stop-color:#42047E"/>
		<stop  offset="0" style="stop-color:#6304AE"/>
		<stop  offset="0.0888" style="stop-color:#600DAD"/>
		<stop  offset="0.2336" style="stop-color:#5625AC"/>
		<stop  offset="0.4165" style="stop-color:#474DA9"/>
		<stop  offset="0.6305" style="stop-color:#3284A5"/>
		<stop  offset="0.8675" style="stop-color:#17CAA1"/>
		<stop  offset="1" style="stop-color:#07F49E"/>
		<stop  offset="1" style="stop-color:#07F49E"/>
	</linearGradient>
	<path fill-rule="evenodd" fill="url(#SVGID_10_)" d="M677.988,74.384c-3.787,0-7.453,0-11.376,0c0-0.727,0-1.402,0-2.078
		c0-10.742-0.033-21.482,0.029-32.223c0.013-1.991-1.293-3.169-2.284-4.553c-0.208-0.291-0.959-0.264-1.461-0.267
		c-4.554-0.019-9.106-0.014-13.66-0.008c-2.062,0.003-2.942,0.878-2.944,2.956c-0.006,11.325-0.003,22.65-0.003,33.974
		c0,0.688,0,1.373,0,2.156c-3.805,0-7.452,0-11.215,0c0-16.52,0-33.004,0-49.603c3.677,0,7.324,0,11.119,0
		c0.059,0.649,0.119,1.309,0.188,2.072c0.314-0.074,0.581-0.059,0.729-0.183c2.359-1.996,5.144-2.107,8.057-2.034
		c4.492,0.114,8.991-0.019,13.483,0.08c0.717,0.016,1.668,0.509,2.089,1.088c2.328,3.209,4.542,6.503,6.749,9.799
		c0.334,0.499,0.602,1.159,0.604,1.745c0.032,12.142,0.021,24.284,0.016,36.424C678.106,73.896,678.047,74.062,677.988,74.384z"/>
	<linearGradient id="SVGID_11_" gradientUnits="userSpaceOnUse" x1="288.626" y1="74.3843" x2="288.626" y2="9.9072">
		<stop  offset="0" style="stop-color:#42047E"/>
		<stop  offset="0" style="stop-color:#6304AE"/>
		<stop  offset="0.0888" style="stop-color:#600DAD"/>
		<stop  offset="0.2336" style="stop-color:#5625AC"/>
		<stop  offset="0.4165" style="stop-color:#474DA9"/>
		<stop  offset="0.6305" style="stop-color:#3284A5"/>
		<stop  offset="0.8675" style="stop-color:#17CAA1"/>
		<stop  offset="1" style="stop-color:#07F49E"/>
		<stop  offset="1" style="stop-color:#07F49E"/>
	</linearGradient>
	<path fill-rule="evenodd" fill="url(#SVGID_11_)" d="M294.297,74.384c-3.856,0-7.522,0-11.423,0c0-0.725,0-1.398,0-2.074
		c0-15.525-0.041-31.051,0.048-46.575c0.012-2.131-1.287-3.419-2.271-4.937c-0.208-0.319-1.053-0.305-1.604-0.308
		c-5.072-0.021-10.145-0.013-15.359-0.013c0-3.543,0-7.003,0-10.571c16.604,0,33.204,0,49.877,0c0,3.533,0,6.948,0,10.512
		c-6.653,0-13.225,0-19.717,0c0.199,0.754,0.508,1.383,0.509,2.012c0.026,16.983,0.02,33.967,0.016,50.952
		C294.374,73.662,294.333,73.943,294.297,74.384z"/>
	<linearGradient id="SVGID_12_" gradientUnits="userSpaceOnUse" x1="78.8228" y1="74.3296" x2="78.8228" y2="24.4365">
		<stop  offset="0" style="stop-color:#42047E"/>
		<stop  offset="0" style="stop-color:#6304AE"/>
		<stop  offset="0.0888" style="stop-color:#600DAD"/>
		<stop  offset="0.2336" style="stop-color:#5625AC"/>
		<stop  offset="0.4165" style="stop-color:#474DA9"/>
		<stop  offset="0.6305" style="stop-color:#3284A5"/>
		<stop  offset="0.8675" style="stop-color:#17CAA1"/>
		<stop  offset="1" style="stop-color:#07F49E"/>
		<stop  offset="1" style="stop-color:#07F49E"/>
	</linearGradient>
	<path fill-rule="evenodd" fill="url(#SVGID_12_)" d="M70.201,29.016c0.415-0.385,0.731-0.58,0.916-0.862
		c2.095-3.201,5.095-3.828,8.729-3.597c4.477,0.284,8.986,0.1,13.479,0.042c1.059-0.013,1.706,0.319,2.284,1.204
		c1.783,2.726,3.651,5.398,5.566,8.207c-2.965,2.033-5.842,4.005-8.894,6.096c-0.832-1.24-1.689-2.404-2.419-3.644
		c-0.532-0.902-1.166-1.273-2.243-1.235c-2.39,0.086-4.785,0.013-7.179,0.032c-1.609,0.013-3.874,2.192-3.878,3.799
		c-0.02,8.231-0.008,16.461,0,24.694c0,0.279,0.08,0.557,0.146,0.986c3.998,0,7.949,0,12.061,0c0,3.266,0,6.373,0,9.592
		c-10.706,0-21.418,0-32.276,0c0-3.082,0-6.186,0-9.516c2.862,0,5.689,0,8.73,0c0-0.787,0-1.354,0-1.918
		c0-7.531,0.003-15.062-0.001-22.592c-0.002-2.964-2.063-5.05-4.971-5.05c-1.221,0-2.441,0-3.78,0c0-3.547,0-6.959,0-10.281
		C61.968,23.187,66.093,26.2,70.201,29.016z"/>
</g>
</svg>
